<svg width="64" height="64" viewBox="0 0 64 64" fill="none" xmlns="http://www.w3.org/2000/svg">
<g filter="url(#filter0_d)">
<circle cx="32" cy="32" r="18" fill="white"/>
</g>
<path d="M35.0057 33.805H34.3734L34.1492 33.5889C34.9337 32.6764 35.4059 31.4917 35.4059 30.203C35.4059 27.3293 33.0766 25 30.203 25C27.3293 25 25 27.3293 25 30.203C25 33.0766 27.3293 35.4059 30.203 35.4059C31.4917 35.4059 32.6764 34.9337 33.5889 34.1492L33.805 34.3734V35.0057L37.8073 39L39 37.8073L35.0057 33.805ZM30.203 33.805C28.2098 33.805 26.6009 32.1961 26.6009 30.203C26.6009 28.2098 28.2098 26.6009 30.203 26.6009C32.1961 26.6009 33.805 28.2098 33.805 30.203C33.805 32.1961 32.1961 33.805 30.203 33.805Z" fill="#EA7783"/>
<defs>
<filter id="filter0_d" x="0" y="0" width="64" height="64" filterUnits="userSpaceOnUse" color-interpolation-filters="sRGB">
<feFlood flood-opacity="0" result="BackgroundImageFix"/>
<feColorMatrix in="SourceAlpha" type="matrix" values="0 0 0 0 0 0 0 0 0 0 0 0 0 0 0 0 0 0 127 0"/>
<feOffset/>
<feGaussianBlur stdDeviation="7"/>
<feColorMatrix type="matrix" values="0 0 0 0 0.758333 0 0 0 0 0.715 0 0 0 0 0.6825 0 0 0 1 0"/>
<feBlend mode="normal" in2="BackgroundImageFix" result="effect1_dropShadow"/>
<feBlend mode="normal" in="SourceGraphic" in2="effect1_dropShadow" result="shape"/>
</filter>
</defs>
</svg>
